<?xml version="1.0" standalone="no"?>
<!DOCTYPE svg PUBLIC "-//W3C//DTD SVG 20010904//EN"
 "http://www.w3.org/TR/2001/REC-SVG-20010904/DTD/svg10.dtd">
<svg version="1.0" xmlns="http://www.w3.org/2000/svg"
 width="775.000000pt" height="414.000000pt" viewBox="0 0 775.000000 414.000000"
 preserveAspectRatio="xMidYMid meet">
<metadata>
Created by potrace 1.16, written by Peter Selinger 2001-2019
</metadata>
<g transform="translate(0.000000,414.000000) scale(0.100000,-0.100000)"
fill="#000000" stroke="none">
<path d="M1050 2185 l0 -1165 690 0 690 0 0 -235 0 -235 1445 0 1445 0 0 235
0 235 690 0 690 0 0 1165 0 1165 -2825 0 -2825 0 0 -1165z m5604 0 l0 -1120
-667 -3 -667 -2 0 215 0 215 -1445 0 -1445 0 0 -215 0 -215 -667 2 -667 3 -2
1115 c-1 613 1 1118 3 1123 2 4 1254 6 2781 5 l2777 -3 -1 -1120z m-2533
-1045 c51 -28 65 -125 24 -165 -22 -23 -32 -25 -107 -25 -61 1 -78 3 -65 11
14 8 17 24 17 89 0 65 -3 81 -17 89 -25 14 121 15 148 1z m559 -121 c0 -36 5
-59 13 -62 6 -3 -5 -6 -27 -6 -32 -1 -37 1 -27 13 7 8 11 31 9 52 -2 31 -8 39
-30 45 -26 7 -27 5 -22 -17 8 -30 -11 -54 -42 -54 -12 0 -26 -4 -29 -10 -4 -6
10 -10 34 -10 30 0 43 -5 51 -19 21 -40 -13 -67 -76 -59 -21 2 -30 9 -32 26
-3 23 21 32 33 12 3 -6 -1 -7 -9 -4 -9 3 -16 1 -16 -5 0 -17 48 -25 65 -11 23
19 13 34 -26 40 -33 5 -34 6 -36 54 -1 28 2 55 7 61 6 7 40 12 85 12 l75 0 0
-58z"/>
<path d="M2299 2197 c37 -18 123 -153 129 -202 5 -48 -10 -82 -41 -95 -15 -6
4 -9 63 -9 81 0 84 1 58 15 -26 14 -28 19 -28 77 0 57 4 67 45 127 25 36 56
73 68 82 22 17 21 18 -38 17 -50 0 -56 -2 -37 -11 12 -6 22 -18 22 -27 0 -15
-60 -111 -70 -111 -8 0 -70 106 -70 119 0 7 10 16 23 21 16 6 -2 9 -63 9 -70
0 -81 -2 -61 -12z"/>
<path d="M3983 2194 l27 -15 0 -122 c0 -127 -2 -137 -35 -155 -16 -9 -5 -11
60 -11 65 0 76 2 60 11 -31 17 -35 28 -35 96 0 53 3 62 18 62 24 0 62 -28 62
-45 0 -8 5 -17 10 -20 6 -4 10 22 10 72 -1 75 -1 77 -16 51 -15 -29 -42 -48
-68 -48 -13 0 -16 13 -16 66 l0 67 52 -5 c41 -4 57 -11 75 -33 28 -32 32 -31
26 13 l-5 32 -127 0 c-117 -1 -124 -2 -98 -16z"/>
<path d="M2605 2077 c-10 -8 -15 -19 -11 -25 11 -18 26 -15 44 9 24 29 52 16
52 -25 0 -29 -4 -33 -49 -49 -57 -20 -73 -47 -45 -78 19 -21 55 -25 86 -8 14
8 23 8 31 0 13 -13 54 -15 61 -2 3 5 -2 8 -12 7 -14 -1 -17 10 -20 74 -2 62
-6 78 -23 93 -25 20 -88 23 -114 4z"/>
<path d="M2952 2081 c-10 -6 -10 -10 3 -21 24 -20 21 -124 -5 -150 l-20 -20
57 0 c54 0 55 1 40 18 -25 28 -23 126 3 152 45 45 70 18 70 -73 0 -55 -4 -73
-17 -83 -16 -12 -10 -13 42 -13 44 0 55 2 43 9 -22 13 -32 61 -23 116 5 35 12
48 31 56 41 19 59 -9 59 -88 0 -53 -4 -68 -19 -80 -18 -13 -14 -14 40 -14 51
1 57 2 42 14 -14 10 -18 28 -18 83 0 55 -4 73 -18 86 -23 21 -71 22 -100 1
-20 -14 -24 -14 -38 0 -20 20 -63 20 -92 0 -20 -14 -22 -14 -22 0 0 17 -36 22
-58 7z"/>
<path d="M3462 2081 c-10 -6 -10 -10 3 -21 24 -20 21 -124 -5 -150 l-20 -20
57 0 c54 0 55 1 40 18 -25 28 -23 126 3 152 45 45 70 18 70 -73 0 -55 -4 -73
-17 -83 -16 -12 -10 -13 42 -13 44 0 55 2 43 9 -22 13 -32 61 -23 116 5 35 12
48 31 56 41 19 59 -9 59 -88 0 -53 -4 -68 -19 -80 -18 -13 -14 -14 40 -14 51
1 57 2 42 14 -14 10 -18 28 -18 83 0 55 -4 73 -18 86 -23 21 -71 22 -100 1
-20 -14 -24 -14 -38 0 -20 20 -63 20 -92 0 -20 -14 -22 -14 -22 0 0 17 -36 22
-58 7z"/>
<path d="M4395 2077 c-10 -8 -15 -19 -11 -25 11 -18 26 -15 44 9 24 29 52 16
52 -25 0 -29 -4 -33 -49 -49 -57 -20 -73 -47 -45 -78 19 -21 55 -25 86 -8 14
8 23 8 31 0 13 -13 54 -15 61 -2 3 5 -2 8 -12 7 -14 -1 -17 10 -20 74 -2 62
-6 78 -23 93 -25 20 -88 23 -114 4z"/>
<path d="M4609 2069 c-23 -23 -25 -62 -4 -79 14 -11 14 -15 -2 -32 -24 -26 -6
-52 38 -56 70 -5 80 -11 77 -40 -6 -54 -91 -68 -122 -20 -15 25 7 47 29 28 13
-11 14 -10 9 4 -8 22 -41 20 -54 -3 -21 -41 12 -71 80 -71 67 0 100 24 100 72
0 37 -34 58 -92 58 -58 0 -72 17 -21 25 56 10 60 12 78 38 12 19 13 30 5 52
-13 34 -8 40 19 24 21 -14 38 -8 27 9 -3 5 -38 9 -77 10 -57 0 -75 -4 -90 -19z"/>
<path d="M4822 2074 c-12 -8 -29 -29 -38 -45 -51 -99 96 -190 177 -110 31 31
39 83 19 122 -24 44 -114 64 -158 33z m99 -13 c20 -16 24 -29 24 -71 0 -42 -4
-55 -24 -71 -31 -25 -47 -24 -76 6 -19 18 -25 35 -25 65 0 30 6 47 25 65 29
30 45 31 76 6z"/>
<path d="M5222 2074 c-12 -8 -29 -29 -38 -45 -51 -99 96 -190 177 -110 31 31
39 83 19 122 -24 44 -114 64 -158 33z m99 -13 c20 -16 24 -29 24 -71 0 -42 -4
-55 -24 -71 -31 -25 -47 -24 -76 6 -19 18 -25 35 -25 65 0 30 6 47 25 65 29
30 45 31 76 6z"/>
<path d="M4032 1054 c3 -87 3 -89 29 -92 14 -2 36 6 50 17 19 15 24 29 24 65
0 53 -23 82 -73 92 l-33 7 3 -89z"/>
</g>
</svg>
